<svg width="137" height="36" viewBox="0 0 137 36" fill="none" xmlns="http://www.w3.org/2000/svg">
<rect x="0.5" y="0.5" width="136" height="35" rx="3.5" fill="white" stroke="#D9D9D9"/>
<path d="M16.672 21.848H22.816V23H15.408V12.28H16.672V21.848ZM31.135 15.112H32.351V23H31.135V21.752C30.431 22.68 29.311 23.208 27.999 23.208C25.903 23.208 24.063 21.56 24.063 19.064C24.063 16.568 25.903 14.92 27.999 14.92C29.311 14.92 30.431 15.448 31.135 16.376V15.112ZM28.191 22.12C29.679 22.12 31.135 20.936 31.135 19.064C31.135 17.176 29.679 15.992 28.191 15.992C26.559 15.992 25.247 17.176 25.247 19.064C25.247 20.936 26.559 22.12 28.191 22.12ZM35.7176 20.6C35.8296 21.64 36.7896 22.2 38.0376 22.2C39.1736 22.2 39.9256 21.672 39.9256 20.856C39.9256 20.2 39.4296 19.896 38.6296 19.72L36.8216 19.32C35.5096 19.048 34.7736 18.392 34.7736 17.304C34.7736 15.88 35.9576 14.92 37.7656 14.92C39.5416 14.92 40.6936 15.832 40.9816 17.112L39.8136 17.368C39.6536 16.504 38.9016 15.912 37.7336 15.912C36.6136 15.912 35.9896 16.456 35.9896 17.208C35.9896 17.832 36.4216 18.12 37.1896 18.296L39.0936 18.712C40.2456 18.968 41.1256 19.576 41.1256 20.776C41.1256 22.328 39.8296 23.208 37.9416 23.208C36.1336 23.208 34.6936 22.408 34.5016 20.872L35.7176 20.6ZM47.6034 21.576L48.0034 22.584C47.3634 23.032 46.8194 23.208 46.1794 23.208C44.6114 23.208 43.5714 22.28 43.5714 20.536V16.136H41.8594V15.112H43.5714V12.6H44.8034V15.112H47.6194V16.136H44.8034V20.456C44.8034 21.48 45.3794 22.056 46.2594 22.056C46.7074 22.056 47.2034 21.864 47.6034 21.576ZM63.6915 12.28H64.9875V23H63.7715V14.616L59.6275 23H58.9715L54.8115 14.6V23H53.5955V12.28H54.8915L59.2915 21.08L63.6915 12.28ZM71.2706 14.936C73.5906 14.936 75.4466 16.632 75.4466 19.048C75.4466 21.464 73.5906 23.192 71.2706 23.192C68.9186 23.192 67.0786 21.464 67.0786 19.048C67.0786 16.632 68.9186 14.936 71.2706 14.936ZM71.2706 22.12C72.8866 22.12 74.2466 20.872 74.2466 19.048C74.2466 17.24 72.8866 16.008 71.2706 16.008C69.6386 16.008 68.2626 17.24 68.2626 19.048C68.2626 20.872 69.6386 22.12 71.2706 22.12ZM81.725 14.92C83.629 14.92 84.893 16.28 84.893 18.28V23H83.677V18.504C83.677 17.032 82.797 16.04 81.485 16.04C79.837 16.04 78.749 17.16 78.749 19.208V23H77.533V15.112H78.749V16.424C79.389 15.464 80.397 14.92 81.725 14.92ZM91.8534 21.576L92.2534 22.584C91.6134 23.032 91.0694 23.208 90.4294 23.208C88.8614 23.208 87.8214 22.28 87.8214 20.536V16.136H86.1094V15.112H87.8214V12.6H89.0534V15.112H91.8694V16.136H89.0534V20.456C89.0534 21.48 89.6294 22.056 90.5094 22.056C90.9574 22.056 91.4534 21.864 91.8534 21.576ZM98.0063 14.92C99.9103 14.92 101.174 16.28 101.174 18.28V23H99.9583V18.504C99.9583 17.032 99.0783 16.04 97.7663 16.04C96.1183 16.04 95.0303 17.16 95.0303 19.208V23H93.8143V11.48H95.0303V16.424C95.6703 15.464 96.6783 14.92 98.0063 14.92Z" fill="#4D4D4D"/>
<path d="M109.277 15.7775C109.614 15.4411 110.14 15.4106 110.511 15.6857L110.617 15.7775L115 20.1598L119.383 15.7775C119.719 15.4411 120.245 15.4106 120.616 15.6857L120.723 15.7775C121.059 16.1138 121.089 16.6401 120.814 17.011L120.723 17.1173L115.67 22.1699C115.334 22.5062 114.807 22.5368 114.436 22.2616L114.33 22.1699L109.277 17.1173C108.908 16.7473 108.908 16.1474 109.277 15.7775Z" fill="#4D4D4D"/>
</svg>
