<svg width="79" height="36" viewBox="0 0 79 36" fill="none" xmlns="http://www.w3.org/2000/svg">
<rect x="0.5" y="0.5" width="78" height="35" rx="3.5" fill="white"/>
<rect x="0.5" y="0.5" width="78" height="35" rx="3.5" stroke="#D9D9D9"/>
<path d="M19.7727 15.2727C19.7045 14.697 19.428 14.25 18.9432 13.9318C18.4583 13.6136 17.8636 13.4545 17.1591 13.4545C16.6439 13.4545 16.1932 13.5379 15.8068 13.7045C15.4242 13.8712 15.125 14.1004 14.9091 14.392C14.697 14.6837 14.5909 15.0152 14.5909 15.3864C14.5909 15.697 14.6648 15.964 14.8125 16.1875C14.964 16.4072 15.1572 16.5909 15.392 16.7386C15.6269 16.8826 15.8731 17.0019 16.1307 17.0966C16.3883 17.1875 16.625 17.2614 16.8409 17.3182L18.0227 17.6364C18.3258 17.7159 18.6629 17.8258 19.0341 17.9659C19.4091 18.1061 19.767 18.2973 20.108 18.5398C20.4527 18.7784 20.7367 19.0852 20.9602 19.4602C21.1837 19.8352 21.2955 20.2955 21.2955 20.8409C21.2955 21.4697 21.1307 22.0379 20.8011 22.5455C20.4754 23.053 19.9981 23.4564 19.3693 23.7557C18.7443 24.0549 17.9848 24.2045 17.0909 24.2045C16.2576 24.2045 15.536 24.0701 14.9261 23.8011C14.3201 23.5322 13.8428 23.1572 13.4943 22.6761C13.1496 22.1951 12.9545 21.6364 12.9091 21H14.3636C14.4015 21.4394 14.5492 21.803 14.8068 22.0909C15.0682 22.375 15.3977 22.5871 15.7955 22.7273C16.197 22.8636 16.6288 22.9318 17.0909 22.9318C17.6288 22.9318 18.1117 22.8447 18.5398 22.6705C18.9678 22.4924 19.3068 22.2462 19.5568 21.9318C19.8068 21.6136 19.9318 21.2424 19.9318 20.8182C19.9318 20.4318 19.8239 20.1174 19.608 19.875C19.392 19.6326 19.108 19.4356 18.7557 19.2841C18.4034 19.1326 18.0227 19 17.6136 18.8864L16.1818 18.4773C15.2727 18.2159 14.553 17.8428 14.0227 17.358C13.4924 16.8731 13.2273 16.2386 13.2273 15.4545C13.2273 14.803 13.4034 14.2348 13.7557 13.75C14.1117 13.2614 14.589 12.8826 15.1875 12.6136C15.7898 12.3409 16.4621 12.2045 17.2045 12.2045C17.9545 12.2045 18.6212 12.339 19.2045 12.608C19.7879 12.8731 20.25 13.2367 20.5909 13.6989C20.9356 14.161 21.1174 14.6856 21.1364 15.2727H19.7727ZM26.9759 24.1818C26.188 24.1818 25.4967 23.9943 24.902 23.6193C24.3111 23.2443 23.849 22.7197 23.5156 22.0455C23.1861 21.3712 23.0213 20.5833 23.0213 19.6818C23.0213 18.7727 23.1861 17.9792 23.5156 17.3011C23.849 16.6231 24.3111 16.0966 24.902 15.7216C25.4967 15.3466 26.188 15.1591 26.9759 15.1591C27.7637 15.1591 28.4531 15.3466 29.044 15.7216C29.6387 16.0966 30.1009 16.6231 30.4304 17.3011C30.7637 17.9792 30.9304 18.7727 30.9304 19.6818C30.9304 20.5833 30.7637 21.3712 30.4304 22.0455C30.1009 22.7197 29.6387 23.2443 29.044 23.6193C28.4531 23.9943 27.7637 24.1818 26.9759 24.1818ZM26.9759 22.9773C27.5743 22.9773 28.0668 22.8239 28.4531 22.517C28.8395 22.2102 29.1255 21.8068 29.3111 21.3068C29.4967 20.8068 29.5895 20.2652 29.5895 19.6818C29.5895 19.0985 29.4967 18.5549 29.3111 18.0511C29.1255 17.5473 28.8395 17.1402 28.4531 16.8295C28.0668 16.5189 27.5743 16.3636 26.9759 16.3636C26.3774 16.3636 25.8849 16.5189 25.4986 16.8295C25.1122 17.1402 24.8262 17.5473 24.6406 18.0511C24.455 18.5549 24.3622 19.0985 24.3622 19.6818C24.3622 20.2652 24.455 20.8068 24.6406 21.3068C24.8262 21.8068 25.1122 22.2102 25.4986 22.517C25.8849 22.8239 26.3774 22.9773 26.9759 22.9773ZM32.9773 24V15.2727H34.2727V16.5909H34.3636C34.5227 16.1591 34.8106 15.8087 35.2273 15.5398C35.6439 15.2708 36.1136 15.1364 36.6364 15.1364C36.7348 15.1364 36.858 15.1383 37.0057 15.142C37.1534 15.1458 37.2652 15.1515 37.3409 15.1591V16.5227C37.2955 16.5114 37.1913 16.4943 37.0284 16.4716C36.8693 16.4451 36.7008 16.4318 36.5227 16.4318C36.0985 16.4318 35.7197 16.5208 35.3864 16.6989C35.0568 16.8731 34.7955 17.1155 34.6023 17.4261C34.4129 17.733 34.3182 18.0833 34.3182 18.4773V24H32.9773ZM43.2727 15.2727V16.4091H38.75V15.2727H43.2727ZM40.0682 13.1818H41.4091V21.5C41.4091 21.8788 41.464 22.1629 41.5739 22.3523C41.6875 22.5379 41.8314 22.6629 42.0057 22.7273C42.1837 22.7879 42.3712 22.8182 42.5682 22.8182C42.7159 22.8182 42.8371 22.8106 42.9318 22.7955C43.0265 22.7765 43.1023 22.7614 43.1591 22.75L43.4318 23.9545C43.3409 23.9886 43.214 24.0227 43.0511 24.0568C42.8883 24.0947 42.6818 24.1136 42.4318 24.1136C42.053 24.1136 41.6818 24.0322 41.3182 23.8693C40.9583 23.7064 40.6591 23.4583 40.4205 23.125C40.1856 22.7917 40.0682 22.3712 40.0682 21.8636V13.1818Z" fill="#4D4D4D"/>
<path fill-rule="evenodd" clip-rule="evenodd" d="M52.623 19.9338C52.8313 19.7255 53.169 19.7255 53.3773 19.9338L55.641 22.1975L57.9047 19.9338C58.113 19.7255 58.4507 19.7255 58.659 19.9338C58.8673 20.142 58.8673 20.4797 58.659 20.688L56.0181 23.3289C55.8098 23.5371 55.4722 23.5371 55.2639 23.3289L52.623 20.688C52.4147 20.4797 52.4147 20.142 52.623 19.9338Z" fill="#4D4D4D"/>
<path fill-rule="evenodd" clip-rule="evenodd" d="M55.641 12.5152C55.9355 12.5152 56.1743 12.7539 56.1743 13.0485V22.9517C56.1743 23.2463 55.9355 23.4851 55.641 23.4851C55.3464 23.4851 55.1076 23.2463 55.1076 22.9517V13.0485C55.1076 12.7539 55.3464 12.5152 55.641 12.5152Z" fill="#4D4D4D"/>
<path fill-rule="evenodd" clip-rule="evenodd" d="M65.3772 16.0665C65.169 16.2747 64.8313 16.2747 64.623 16.0665L62.3592 13.8027L60.0955 16.0665C59.8872 16.2747 59.5495 16.2747 59.3413 16.0665C59.133 15.8582 59.133 15.5205 59.3413 15.3122L61.9821 12.6713C62.1904 12.4631 62.5281 12.4631 62.7364 12.6713L65.3772 15.3122C65.5855 15.5205 65.5855 15.8582 65.3772 16.0665Z" fill="#4D4D4D"/>
<path fill-rule="evenodd" clip-rule="evenodd" d="M62.3593 23.4851C62.0647 23.4851 61.826 23.2463 61.826 22.9517L61.826 13.0485C61.826 12.7539 62.0647 12.5151 62.3593 12.5151C62.6538 12.5151 62.8926 12.7539 62.8926 13.0485L62.8926 22.9517C62.8926 23.2463 62.6538 23.4851 62.3593 23.4851Z" fill="#4D4D4D"/>
</svg>
