<svg width="18" height="16" viewBox="0 0 18 16" fill="none" xmlns="http://www.w3.org/2000/svg">
<path fill-rule="evenodd" clip-rule="evenodd" d="M1.6626 8.93711C1.6626 8.50909 2.00958 8.16211 2.4376 8.16211H6.8126C7.24062 8.16211 7.5876 8.50909 7.5876 8.93711C7.5876 9.36513 7.24062 9.71211 6.8126 9.71211H3.2126V14.5621C3.2126 14.9901 2.86562 15.3371 2.4376 15.3371C2.00958 15.3371 1.6626 14.9901 1.6626 14.5621V8.93711Z" fill="white"/>
<path fill-rule="evenodd" clip-rule="evenodd" d="M0.412598 14.5621C0.412598 14.1341 0.759577 13.7871 1.1876 13.7871H16.8126C17.2406 13.7871 17.5876 14.1341 17.5876 14.5621C17.5876 14.9901 17.2406 15.3371 16.8126 15.3371H1.1876C0.759577 15.3371 0.412598 14.9901 0.412598 14.5621Z" fill="white"/>
<path fill-rule="evenodd" clip-rule="evenodd" d="M6.0376 5.18711C6.0376 4.75909 6.38458 4.41211 6.8126 4.41211H11.1876C11.6156 4.41211 11.9626 4.75909 11.9626 5.18711C11.9626 5.61513 11.6156 5.96211 11.1876 5.96211H7.5876V14.5621C7.5876 14.9901 7.24062 15.3371 6.8126 15.3371C6.38458 15.3371 6.0376 14.9901 6.0376 14.5621V5.18711Z" fill="white"/>
<path fill-rule="evenodd" clip-rule="evenodd" d="M10.4126 1.43711C10.4126 1.00909 10.7596 0.662109 11.1876 0.662109H15.5626C15.9906 0.662109 16.3376 1.00909 16.3376 1.43711V14.5621C16.3376 14.9901 15.9906 15.3371 15.5626 15.3371H11.1876C10.7596 15.3371 10.4126 14.9901 10.4126 14.5621V1.43711ZM11.9626 2.21211V13.7871H14.7876V2.21211H11.9626Z" fill="white"/>
</svg>
