<svg width="20" height="16" viewBox="0 0 20 16" fill="none" xmlns="http://www.w3.org/2000/svg">
<path fill-rule="evenodd" clip-rule="evenodd" d="M0.833496 1.03731C0.833496 0.652649 1.14397 0.34082 1.52695 0.34082H13.0813C13.4643 0.34082 13.7748 0.652649 13.7748 1.03731V11.095C13.7748 11.4796 13.4643 11.7915 13.0813 11.7915H1.52695C1.14397 11.7915 0.833496 11.4796 0.833496 11.095V1.03731ZM2.2204 1.7338V10.3985H12.3879V1.7338H2.2204Z" fill="white"/>
<path fill-rule="evenodd" clip-rule="evenodd" d="M12.3879 4.90567C12.3879 4.52101 12.6983 4.20918 13.0813 4.20918H16.1625C16.3464 4.20918 16.5228 4.28256 16.6528 4.41318L18.9637 6.73417C19.0938 6.86479 19.1668 7.04195 19.1668 7.22667V11.095C19.1668 11.4797 18.8564 11.7915 18.4734 11.7915L13.0813 11.7915C12.6984 11.7915 12.3879 11.4797 12.3879 11.095V4.90567ZM13.7748 5.60216V10.3985H17.7799V7.51516L15.8753 5.60216H13.7748Z" fill="white"/>
<path fill-rule="evenodd" clip-rule="evenodd" d="M4.99322 11.7914C4.31265 11.7914 3.76094 12.3456 3.76094 13.0291C3.76094 13.7127 4.31265 14.2668 4.99322 14.2668C5.67379 14.2668 6.2255 13.7127 6.2255 13.0291C6.2255 12.3456 5.67379 11.7914 4.99322 11.7914ZM2.37404 13.0291C2.37404 11.5763 3.54668 10.3985 4.99322 10.3985C6.43975 10.3985 7.6124 11.5763 7.6124 13.0291C7.6124 14.482 6.43975 15.6598 4.99322 15.6598C3.54668 15.6598 2.37404 14.482 2.37404 13.0291Z" fill="white"/>
<path fill-rule="evenodd" clip-rule="evenodd" d="M15.0071 11.7914C14.3265 11.7914 13.7748 12.3456 13.7748 13.0291C13.7748 13.7127 14.3265 14.2668 15.0071 14.2668C15.6876 14.2668 16.2393 13.7127 16.2393 13.0291C16.2393 12.3456 15.6876 11.7914 15.0071 11.7914ZM12.3879 13.0291C12.3879 11.5763 13.5605 10.3985 15.0071 10.3985C16.4536 10.3985 17.6262 11.5763 17.6262 13.0291C17.6262 14.482 16.4536 15.6598 15.0071 15.6598C13.5605 15.6598 12.3879 14.482 12.3879 13.0291Z" fill="white"/>
</svg>
