<svg width="18" height="18" viewBox="0 0 18 18" fill="none" xmlns="http://www.w3.org/2000/svg">
<path d="M16.0807 9.83366C16.7711 9.83366 17.3307 10.3933 17.3307 11.0837V16.0837C17.3307 16.774 16.7711 17.3337 16.0807 17.3337H11.0807C10.3904 17.3337 9.83073 16.774 9.83073 16.0837V11.0837C9.83073 10.3933 10.3904 9.83366 11.0807 9.83366H16.0807ZM6.9165 9.83366C7.60686 9.83366 8.1665 10.3933 8.1665 11.0837V16.0837C8.1665 16.774 7.60686 17.3337 6.9165 17.3337H1.9165C1.22615 17.3337 0.666504 16.774 0.666504 16.0837V11.0837C0.666504 10.3933 1.22615 9.83366 1.9165 9.83366H6.9165ZM15.914 11.2503H11.2473V15.917H15.914V11.2503ZM6.74984 11.2503H2.08317V15.917H6.74984V11.2503ZM6.9165 0.666992C7.60686 0.666992 8.1665 1.22664 8.1665 1.91699V6.91699C8.1665 7.60735 7.60686 8.16699 6.9165 8.16699H1.9165C1.22615 8.16699 0.666504 7.60735 0.666504 6.91699V1.91699C0.666504 1.22664 1.22615 0.666992 1.9165 0.666992H6.9165ZM16.0807 0.666992C16.7711 0.666992 17.3307 1.22664 17.3307 1.91699V6.91699C17.3307 7.60735 16.7711 8.16699 16.0807 8.16699H11.0807C10.3904 8.16699 9.83073 7.60735 9.83073 6.91699V1.91699C9.83073 1.22664 10.3904 0.666992 11.0807 0.666992H16.0807ZM6.74984 2.08366H2.08317V6.75033H6.74984V2.08366ZM15.914 2.08366H11.2473V6.75033H15.914V2.08366Z" fill="white"/>
</svg>
